<?xml version="1.0" encoding="UTF-8"?>
<svg xmlns="http://www.w3.org/2000/svg" viewBox="0 0 1080 205.7">
<svg x="0.6" y="0" width="205.7" height="205.7" viewBox="0 0 1024 1024" preserveAspectRatio="xMidYMid meet"><rect width="1024" height="1024" rx="230.4" ry="230.4" fill="#0A0A0A"/><svg x="107.52" y="107.52" width="808.96" height="808.96" viewBox="0 0 1024 1024" preserveAspectRatio="xMidYMid meet"><title>OpenTrain</title>
  <path fill="#FFFFFF" d="M361.392944,900.758545 C296.671082,874.531128 241.806839,835.275757 196.935226,782.195068 C160.806961,739.457275 133.216354,691.863770 116.624863,638.291992 C101.626396,589.863770 94.287781,540.207031 97.063187,489.486267 C101.387405,410.461090 125.054863,337.574097 169.100555,271.637573 C214.540756,203.613510 275.052582,153.367676 349.946167,120.639122 C388.633942,103.732536 429.077820,93.141273 471.151855,88.568771 C548.808044,80.129318 622.572205,94.135651 692.454407,127.918365 C763.377014,162.204041 820.409729,212.661087 862.477295,279.616760 C894.373230,330.382904 914.799438,385.420258 923.880371,444.634979 C928.511536,474.833954 930.217896,505.249573 928.020264,535.751587 C921.952087,619.976196 894.103699,696.179504 843.220398,763.757141 C801.841309,818.712341 749.887939,860.743164 687.842834,890.328857 C647.352905,909.636108 604.726379,921.823242 560.234741,927.055725 C491.927521,935.089050 425.769287,925.875061 361.392944,900.758545 M547.884583,663.369690 C546.120544,666.769653 544.258850,670.122986 542.608032,673.577087 C529.832275,700.307922 521.256836,728.149475 521.185242,758.066223 C521.063660,808.886230 521.138367,859.706665 521.139587,910.526917 C521.139832,918.096069 521.495117,918.397888 529.127136,917.670044 C562.712708,914.467407 593.780640,903.728455 622.529114,886.217957 C658.950806,864.033875 688.610291,834.752991 712.857971,799.808105 C741.181519,758.989258 760.575562,714.109375 773.654785,666.361938 C783.217102,631.453491 789.417908,595.926697 792.367188,559.865540 C793.547424,545.435669 793.893250,530.938965 794.766052,516.481567 C795.003296,512.552124 793.585938,511.175262 789.637512,511.292847 C781.646606,511.530762 773.633911,511.112335 765.647766,511.419983 C745.237671,512.206177 725.101562,515.178894 706.015808,522.577515 C636.088562,549.684937 585.358337,598.586121 547.884583,663.369690 M135.992920,608.550293 C166.214172,660.513794 209.598663,698.840393 260.997864,728.720459 C305.384369,754.523682 353.324615,770.626709 403.626617,780.162720 C436.101501,786.319153 468.841827,789.463745 501.884460,789.840271 C506.546539,789.893433 508.001465,788.404114 507.782684,783.838318 C507.344910,774.702637 507.439911,765.556885 506.982697,756.400696 C505.487946,726.468506 497.827240,698.180298 484.356628,671.625305 C455.974365,615.674561 414.531403,571.690247 360.493744,539.831116 C330.787170,522.316956 298.934143,511.281891 263.985809,511.029968 C248.825333,510.920654 233.663803,510.937225 218.502762,510.932953 C183.681915,510.923126 148.861069,510.922211 114.040245,510.951233 C107.617043,510.956604 106.975563,511.516113 107.285576,517.727722 C107.884285,529.723938 110.109146,541.487549 113.073486,553.096802 C118.007271,572.419067 125.915634,590.541687 135.992920,608.550293 M506.706726,276.349060 C508.498901,265.171143 509.884796,253.936829 509.908569,242.609863 C509.991730,202.960449 509.936554,163.310745 509.931061,123.661140 C509.930023,116.164391 509.841888,108.666641 509.942047,101.171333 C509.986450,97.849937 508.862274,96.173698 505.291016,96.446419 C484.110077,98.063904 463.345367,101.717262 443.455078,109.394966 C401.116974,125.737595 366.395599,152.688568 337.314209,187.034988 C300.968384,229.961014 275.951294,279.121918 259.096222,332.586426 C248.007339,367.760437 240.335724,403.671844 236.466904,440.356110 C234.651642,457.568451 233.246124,474.818298 232.983795,492.150299 C232.917419,496.535492 234.373459,498.116211 238.733551,497.899689 C244.384048,497.619049 250.060898,497.717377 255.722534,497.836639 C297.506897,498.716888 335.453156,486.391052 370.617828,464.499146 C396.977203,448.088989 420.116943,427.889404 440.661591,404.672607 C473.351501,367.730774 497.426727,326.317322 506.706726,276.349060 M548.506165,221.242599 C542.353088,220.971512 536.200989,220.513275 530.046692,220.480789 C523.617310,220.446869 522.544006,221.591064 522.523132,228.106781 C522.501282,234.931656 522.985291,241.762711 522.832581,248.581772 C522.151794,278.984589 529.042603,307.715637 542.160889,334.959259 C568.062012,388.749847 607.193359,430.990265 656.835938,463.488281 C692.216736,486.649963 731.010071,498.748444 773.859009,497.973999 C818.500244,497.167145 863.167969,497.825531 907.824158,497.845276 C917.705627,497.849640 917.799500,497.844086 916.833008,488.068787 C913.552063,454.885284 903.148376,424.011139 886.041077,395.460236 C860.653259,353.089447 826.416992,319.210144 785.140991,292.446930 C713.503357,245.997299 634.143921,224.775528 548.506165,221.242599 z"/></svg></svg>
<g>
    <path d="m349.1,91.46c0,10.46-1.98,19.42-5.81,26.86-3.95,7.44-9.19,13.14-15.93,17.09-6.74,3.95-14.3,5.93-22.91,5.93s-16.16-1.98-22.91-5.93c-6.74-3.95-12.09-9.65-15.93-17.09-3.84-7.44-5.81-16.39-5.81-26.86s1.98-19.42,5.81-26.86c3.84-7.44,9.19-13.14,15.93-17.09,6.74-3.95,14.42-5.93,22.91-5.93s16.16,1.98,22.91,5.93c6.74,3.95,12.09,9.65,15.93,17.09,3.84,7.44,5.81,16.39,5.81,26.86Zm-17.67,0c0-11.05-2.56-19.53-7.56-25.35-5-5.81-11.51-8.72-19.42-8.72s-14.42,2.91-19.42,8.72c-5,5.81-7.56,14.3-7.56,25.35s2.56,19.53,7.56,25.35c5,5.81,11.51,8.84,19.42,8.84s14.42-2.91,19.42-8.84c5-5.93,7.56-14.3,7.56-25.35Z"/>
    <path d="m365.03,167.5v-100.34h16.86v12.09h1.05c.93-1.74,2.09-3.72,3.72-5.7,1.63-1.98,3.84-3.72,6.51-5.23,2.79-1.4,6.28-2.21,10.58-2.21,5.58,0,10.7,1.4,15.23,4.3,4.53,2.91,8.14,7.09,10.81,12.67,2.67,5.58,4.07,12.44,4.07,20.46s-1.28,14.77-3.95,20.46c-2.67,5.58-6.16,9.88-10.7,12.79-4.53,2.91-9.65,4.42-15.35,4.42-4.19,0-7.67-.7-10.35-2.09-2.79-1.4-5-3.02-6.63-5-1.63-1.98-2.91-3.84-3.84-5.58h-.7v38.84h-17.32v.12Zm16.86-63.83c0,7.09,1.51,12.79,4.42,17.09,3.02,4.3,7.21,6.51,12.67,6.51s10-2.21,12.91-6.74c2.91-4.42,4.42-10.12,4.42-16.98s-1.51-12.44-4.42-16.74c-2.91-4.42-7.21-6.51-12.91-6.51s-9.77,2.09-12.67,6.4c-2.91,4.19-4.42,9.88-4.42,16.98Z"/>
    <path d="m480.84,141.57c-7.33,0-13.6-1.51-18.95-4.65-5.35-3.14-9.42-7.44-12.21-13.02-2.79-5.58-4.3-12.21-4.3-19.88s1.4-14.07,4.3-19.77c2.91-5.7,6.86-10.12,12.09-13.26,5.23-3.14,11.28-4.77,18.25-4.77,5.93,0,11.51,1.28,16.63,3.84,5.12,2.56,9.07,6.63,12.21,11.98,3.02,5.46,4.53,12.44,4.53,20.93v5.23h-50.81c.12,6.28,1.86,11.05,5.23,14.53,3.37,3.49,7.79,5.23,13.37,5.23,3.72,0,6.86-.81,9.65-2.44,2.79-1.63,4.65-3.95,5.81-6.98l16.05,1.86c-1.51,6.28-5,11.39-10.58,15.23-5.7,3.95-12.79,5.93-21.28,5.93Zm-18.25-44.77h34.18c0-5-1.63-9.07-4.65-12.32-3.02-3.26-7.09-4.88-11.98-4.88s-9.3,1.74-12.44,5.12c-3.14,3.37-4.88,7.33-5.12,12.09Z"/>
    <path d="m545.02,97.39v42.79h-17.21v-73.02h16.39v12.44h.81c1.63-4.07,4.42-7.33,8.02-9.77,3.72-2.44,8.26-3.6,13.72-3.6,7.56,0,13.6,2.44,18.14,7.21,4.53,4.77,6.86,11.51,6.86,20.23v46.39h-17.09v-43.83c0-4.88-1.28-8.72-3.72-11.39-2.56-2.79-6.05-4.19-10.46-4.19s-8.26,1.4-11.16,4.3-4.3,7.09-4.3,12.44Z"/>
    <path d="m599.79,57.62v-14.77h77.55v14.77h-30.11v82.44h-17.44V57.62h-30Z"/>
    <path d="m683.85,140.06v-72.9h16.63v12.21h.81c1.28-4.19,3.6-7.56,6.86-9.77,3.26-2.21,6.98-3.37,11.16-3.37,1.98,0,3.72.23,5.46.7s3.14,1.16,4.42,1.98l-5.35,14.3c-.93-.47-1.98-.81-3.02-1.05-1.16-.23-2.33-.47-3.72-.47-4.53,0-8.26,1.51-11.28,4.42-3.02,2.91-4.53,6.74-4.53,11.28v42.9h-17.44v-.23Z"/>
    <path d="m758.85,141.57c-6.98,0-12.79-1.86-17.44-5.58-4.65-3.72-6.98-9.19-6.98-16.28,0-5.46,1.28-9.77,3.95-12.79,2.67-3.02,6.05-5.23,10.35-6.63,4.19-1.4,8.72-2.33,13.37-2.79,6.4-.7,11.05-1.4,13.84-1.98s4.19-2.09,4.19-4.65v-.23c0-3.6-1.05-6.4-3.14-8.26-2.09-1.98-5.23-2.91-9.19-2.91-4.19,0-7.56.93-10,2.79-2.44,1.86-4.07,3.95-5,6.51l-16.05-2.33c1.86-6.63,5.58-11.63,11.16-15,5.58-3.37,12.09-5.12,19.77-5.12,3.49,0,6.98.47,10.46,1.28,3.49.81,6.63,2.21,9.53,4.07s5.23,4.42,6.98,7.67c1.74,3.26,2.67,7.21,2.67,12.09v48.83h-16.51v-10h-.58c-1.51,3.02-4.07,5.7-7.56,8.02-3.49,2.09-8.14,3.26-13.84,3.26Zm4.42-12.67c5.23,0,9.3-1.51,12.32-4.42,3.02-3.02,4.53-6.51,4.53-10.58v-8.6c-.7.58-2.09,1.16-4.07,1.63-1.98.47-4.07.81-6.16,1.16-2.21.35-4.07.58-5.58.81-3.84.58-6.98,1.63-9.53,3.14s-3.84,3.95-3.84,7.33c0,3.14,1.16,5.58,3.49,7.21,2.33,1.51,5.23,2.33,8.84,2.33Z"/>
    <path d="m823.26,56.81c-2.79,0-5.12-.93-7.09-2.67-1.98-1.86-2.91-4.07-2.91-6.63s.93-4.77,2.91-6.63c1.98-1.86,4.3-2.67,7.09-2.67s5,.93,6.98,2.67c1.98,1.86,2.91,4.07,2.91,6.63s-.93,4.77-2.91,6.63c-1.86,1.74-4.19,2.67-6.98,2.67Zm-8.6,83.25v-72.9h17.21v72.9h-17.21Z"/>
    <path d="m866.75,97.39v42.79h-17.21v-73.02h16.39v12.44h.81c1.63-4.07,4.42-7.33,8.02-9.77,3.72-2.44,8.26-3.6,13.72-3.6,7.56,0,13.6,2.44,18.14,7.21,4.53,4.77,6.86,11.51,6.86,20.23v46.39h-17.21v-43.83c0-4.88-1.28-8.72-3.72-11.39-2.56-2.79-6.05-4.19-10.46-4.19s-8.26,1.4-11.16,4.3c-2.79,3.02-4.19,7.09-4.19,12.44Z"/>
    <path d="m977.44,140.06h-18.84l34.18-97.2h21.74l34.3,97.2h-18.84l-8.02-23.95h-36.51l-8.02,23.95Zm12.79-38.14h27.09l-13.14-39.18h-.81l-13.14,39.18Z"/>
    <path d="m1079.41,42.86v97.2h-17.67V42.86h17.67Z"/>
  </g>
</svg>
